<?xml version="1.0" encoding="UTF-8" standalone="no"?><!DOCTYPE svg PUBLIC "-//W3C//DTD SVG 1.1//EN" "http://www.w3.org/Graphics/SVG/1.1/DTD/svg11.dtd"><svg width="100%" height="100%" viewBox="0 0 32 32" version="1.1" xmlns="http://www.w3.org/2000/svg" xmlns:xlink="http://www.w3.org/1999/xlink" xml:space="preserve" xmlns:serif="http://www.serif.com/" style="fill-rule:evenodd;clip-rule:evenodd;stroke-linejoin:round;stroke-miterlimit:1.41421;"><rect x="0.002" y="-0.038" width="32.022" height="32.155" style="fill:#282828;"/><g id="g6990"><path id="path6" d="M18.331,2.308c1.506,-0.564 3.104,-0.7 4.678,-0.665c1.24,0.045 2.48,0.182 3.698,0.46c-0.014,0.057 -0.028,0.114 -0.042,0.171c-0.937,-0.22 -1.89,-0.338 -2.842,-0.413c-1.308,-0.092 -2.627,-0.06 -3.92,0.19c-1.119,0.221 -2.234,0.612 -3.193,1.331c-0.734,0.584 -1.428,1.243 -2.048,1.986c-0.949,1.123 -1.697,2.499 -2.047,4.025c-0.405,1.73 -0.309,3.579 0.113,5.292c0.274,1.097 0.688,2.159 1.289,3.07c0.48,0.723 1.096,1.355 1.844,1.674c0.488,0.208 1.021,0.275 1.536,0.183c0.387,-0.068 0.769,-0.165 1.152,-0.256c0.909,-0.221 1.821,-0.553 2.575,-1.198c0.471,-0.36 0.895,-0.794 1.304,-1.242c0.132,-0.14 0.266,-0.278 0.393,-0.425c0.152,-0.169 0.305,-0.335 0.445,-0.517c0.344,-0.384 0.671,-0.788 1.001,-1.188c0.232,-0.277 0.462,-0.557 0.688,-0.841c0.166,-0.208 0.348,-0.4 0.486,-0.636c0.569,-0.907 1.159,-1.799 1.675,-2.748c0.096,-0.199 0.234,-0.373 0.289,-0.595c0.224,-0.75 0.749,-1.341 1.363,-1.671c0.268,-0.148 0.553,-0.252 0.841,-0.333c-0.031,-0.122 -0.082,-0.233 -0.147,-0.334c0.333,0.093 0.667,0.184 1.001,0.279c-0.299,0.199 -0.617,0.358 -0.92,0.548c0.035,-0.1 0.063,-0.203 0.08,-0.309c-0.682,0.173 -1.357,0.56 -1.777,1.224c-0.164,0.252 -0.271,0.544 -0.359,0.839c-0.622,1.189 -1.349,2.296 -2.059,3.415c-0.395,0.5 -0.805,0.983 -1.203,1.48c-0.335,0.394 -0.665,0.794 -1.004,1.183l-0.033,0.039c-0.159,0.178 -0.322,0.351 -0.471,0.54c-0.152,0.152 -0.297,0.314 -0.449,0.467c-0.478,0.502 -0.987,0.971 -1.552,1.338c-0.956,0.624 -2.052,0.846 -3.116,1.083c-0.717,0.161 -1.477,0.053 -2.13,-0.331c-1.024,-0.594 -1.759,-1.685 -2.27,-2.845c-0.706,-1.635 -1.049,-3.48 -0.99,-5.306c0.056,-1.56 0.481,-3.098 1.221,-4.404c0.732,-1.31 1.729,-2.391 2.807,-3.314c0.625,-0.557 1.344,-0.959 2.091,-1.244l0.002,-0.002Z" style="fill:#9c9c9c;fill-rule:nonzero;"/><path id="path8" d="M21.01,3.944c0.243,-0.272 0.519,-0.502 0.771,-0.762c-0.033,0.152 -0.029,0.314 0.024,0.459c0.626,0.01 1.29,0.184 1.76,0.691c0.603,0.64 0.968,1.521 1.218,2.409c0.222,0.808 0.339,1.655 0.344,2.502c0.029,1.231 -0.253,2.48 -0.868,3.493c-0.107,0.181 -0.22,0.357 -0.34,0.526c-0.273,0.374 -0.569,0.723 -0.886,1.045c-0.176,0.186 -0.36,0.361 -0.549,0.529c-0.205,0.181 -0.414,0.354 -0.631,0.515c-0.886,0.661 -1.872,1.157 -2.912,1.378c-0.615,0.124 -1.254,0.162 -1.867,-0.001c-0.326,-0.093 -0.652,-0.246 -0.893,-0.525c-0.17,-0.216 -0.368,-0.4 -0.533,-0.621c-0.554,-0.707 -0.941,-1.595 -1.069,-2.541c-0.132,-0.918 -0.032,-1.863 0.202,-2.748c0.369,-1.48 0.971,-2.924 1.94,-4.005c0.613,-0.692 1.364,-1.194 2.144,-1.588c0.325,-0.161 0.644,-0.342 0.969,-0.503c0.019,0.049 0.039,0.099 0.059,0.148c-0.668,0.394 -1.383,0.681 -2.021,1.143c-0.661,0.455 -1.239,1.069 -1.695,1.785c-0.496,0.777 -0.853,1.661 -1.117,2.574c-0.199,0.699 -0.368,1.419 -0.385,2.159c-0.035,0.94 0.164,1.896 0.596,2.697c0.239,0.471 0.563,0.873 0.909,1.242c0.313,0.441 0.816,0.61 1.288,0.68c0.983,0.125 1.974,-0.138 2.882,-0.561c0.52,-0.246 1.019,-0.553 1.487,-0.913c0.217,-0.167 0.431,-0.344 0.636,-0.531c0.181,-0.164 0.354,-0.34 0.527,-0.514c0.289,-0.303 0.567,-0.622 0.812,-0.973c0.156,-0.218 0.301,-0.448 0.434,-0.687c0.41,-0.749 0.655,-1.616 0.707,-2.502c0.043,-0.609 0.02,-1.225 -0.053,-1.831c-0.136,-1.041 -0.421,-2.073 -0.926,-2.956c-0.277,-0.468 -0.631,-0.909 -1.097,-1.119c-0.316,-0.131 -0.65,-0.214 -0.986,-0.22c0.042,0.052 0.085,0.103 0.129,0.153c-0.336,-0.02 -0.676,0.014 -1.011,-0.027l0.001,0Z" style="fill:#9c9c9c;fill-rule:nonzero;"/><path id="path14" d="M20.543,7.341c0.31,-0.138 0.613,-0.293 0.922,-0.432c-0.043,0.126 -0.076,0.258 -0.081,0.394c0.48,0.094 0.945,0.368 1.244,0.821c0.413,0.61 0.543,1.405 0.565,2.162c0,0.64 0.039,1.33 -0.262,1.899c-0.071,0.13 -0.148,0.255 -0.234,0.371c-0.325,0.423 -0.754,0.712 -1.189,0.955c-0.301,0.151 -0.608,0.279 -0.915,0.411c-0.628,0.193 -1.248,0.478 -1.905,0.5c-0.437,0.017 -0.898,-0.133 -1.206,-0.506c-0.262,-0.309 -0.393,-0.73 -0.462,-1.148c-0.002,-0.02 -0.006,-0.059 -0.008,-0.08c-0.025,-0.448 -0.02,-0.911 0.124,-1.334c0.295,-0.909 0.603,-1.831 1.115,-2.61c0.398,-0.601 0.929,-1.115 1.56,-1.344c0.006,0.042 0.019,0.127 0.025,0.169c-0.591,0.248 -1.098,0.72 -1.472,1.3c-0.475,0.729 -0.767,1.586 -1.046,2.433c-0.209,0.589 -0.212,1.264 -0.046,1.867c0.132,0.472 0.46,0.877 0.881,1.001c0.585,0.188 1.187,-0.02 1.751,-0.204c0.583,-0.19 1.163,-0.406 1.707,-0.715c0.381,-0.223 0.75,-0.497 1.022,-0.883c0.077,-0.109 0.145,-0.226 0.2,-0.352c0.073,-0.167 0.133,-0.345 0.16,-0.531c0.074,-0.659 0.072,-1.331 -0.028,-1.987c-0.076,-0.468 -0.22,-0.936 -0.489,-1.305c-0.264,-0.371 -0.65,-0.612 -1.057,-0.694c0.023,0.073 0.046,0.147 0.07,0.22c-0.233,-0.072 -0.458,-0.17 -0.689,-0.249c-0.09,-0.031 -0.18,-0.065 -0.257,-0.128l0,-0.001Z" style="fill:#9c9c9c;fill-rule:nonzero;"/><path id="path20" d="M3.67,10.088c0.943,-0.302 1.983,-0.346 2.898,0.099c0.815,0.39 1.467,1.139 1.929,1.994c0.514,0.942 0.836,2.004 1.08,3.075c0.433,1.329 0.883,2.652 1.423,3.928c0.205,0.455 0.394,0.935 0.715,1.3c0.564,0.822 1.302,1.489 2.14,1.895c0.53,0.26 1.093,0.432 1.665,0.503c1.038,0.147 2.096,0.026 3.109,-0.263c0.308,-0.081 0.611,-0.186 0.908,-0.311c0.927,-0.537 1.84,-1.113 2.732,-1.725c0.017,-0.012 0.051,-0.034 0.068,-0.046c0.249,-0.168 0.493,-0.347 0.735,-0.528c0.364,-0.272 0.721,-0.557 1.062,-0.864c0.307,-0.274 0.604,-0.563 0.887,-0.869c0.075,-0.085 0.153,-0.165 0.219,-0.26c0.84,-1.296 1.701,-2.574 2.576,-3.839c0.193,-0.283 0.402,-0.551 0.579,-0.847c0.34,-0.515 0.839,-0.841 1.337,-1.11c-0.029,-0.148 -0.093,-0.283 -0.179,-0.397c0.338,0.072 0.676,0.141 1.014,0.21c-0.285,0.218 -0.587,0.406 -0.885,0.6c0.018,-0.071 0.036,-0.142 0.054,-0.214c-0.527,0.269 -1.034,0.652 -1.349,1.222c-1.006,1.427 -1.984,2.882 -2.942,4.353c-0.13,0.228 -0.318,0.395 -0.48,0.591c-0.255,0.255 -0.512,0.509 -0.782,0.742c-0.352,0.305 -0.713,0.596 -1.081,0.872c-1.069,0.8 -2.198,1.485 -3.323,2.174c-0.152,0.095 -0.32,0.151 -0.484,0.213c-0.33,0.122 -0.667,0.213 -1.003,0.305c-1.027,0.24 -2.093,0.314 -3.129,0.11c-0.523,-0.103 -1.037,-0.277 -1.518,-0.535c-0.746,-0.399 -1.414,-0.99 -1.941,-1.719c-0.136,-0.202 -0.307,-0.369 -0.418,-0.593c-0.434,-0.814 -0.757,-1.699 -1.083,-2.577c-0.27,-0.75 -0.528,-1.506 -0.773,-2.268c-0.268,-1.177 -0.63,-2.348 -1.245,-3.347c-0.484,-0.788 -1.159,-1.452 -1.969,-1.734c-0.927,-0.341 -1.934,-0.2 -2.843,0.151c-0.724,0.277 -1.406,0.685 -2.045,1.165c-0.02,-0.034 -0.062,-0.102 -0.083,-0.135c0.741,-0.581 1.56,-1.041 2.424,-1.32l0.001,-0.001Z" style="fill:#9c9c9c;fill-rule:nonzero;"/><path id="path22" d="M21.019,10.346c0.3,0.065 0.598,0.168 0.864,0.347c0.069,0.041 0.137,0.104 0.221,0.084c0.286,-0.029 0.569,-0.071 0.854,-0.101c-0.041,0.356 -0.088,0.71 -0.133,1.065c-0.015,0.091 -0.004,0.183 0.008,0.274c-0.055,0.126 -0.123,0.244 -0.2,0.352c-0.144,-0.389 -0.333,-0.764 -0.604,-1.054c-0.262,-0.299 -0.622,-0.464 -0.988,-0.484c-0.01,-0.161 -0.017,-0.322 -0.022,-0.483l0,0Z" style="fill:#d0d0d0;fill-rule:nonzero;"/><path id="path24" d="M22.697,12.557c0.086,-0.117 0.163,-0.242 0.234,-0.371c0.093,0.222 0.159,0.457 0.232,0.689c0.058,0.045 0.133,0.024 0.199,0.039c0.167,0.012 0.315,0.113 0.45,0.22c-0.245,0.351 -0.523,0.669 -0.812,0.972c-0.054,-0.527 -0.148,-1.049 -0.303,-1.549l0,0Z" style="fill:#d0d0d0;fill-rule:nonzero;"/><path id="path32" d="M23.032,14.308c0.317,-0.323 0.613,-0.672 0.886,-1.046c0.115,0.198 0.191,0.457 0.095,0.686c-0.111,0.305 -0.393,0.435 -0.636,0.559c-0.031,0.392 -0.031,0.785 -0.036,1.176c-0.114,-0.023 -0.227,-0.043 -0.341,-0.061c0.067,-0.435 0.026,-0.877 0.032,-1.314l0,0Z" style="fill:#d0d0d0;fill-rule:nonzero;"/><path id="path38" d="M3.267,14.931c0.653,-0.329 1.423,-0.3 2.059,0.068c0.867,0.493 1.505,1.38 2.033,2.292c1.051,2.132 2.095,4.271 3.07,6.452c0.161,0.355 0.314,0.714 0.476,1.067c0.25,0.559 0.621,1.026 0.95,1.523c1.109,-0.209 2.211,-0.479 3.311,-0.746c2.021,-0.5 4.031,-1.066 6.015,-1.734c0.866,-0.296 1.729,-0.605 2.578,-0.959c0.135,-0.06 0.278,-0.101 0.405,-0.183c0.092,-0.087 0.165,-0.198 0.249,-0.297c0.011,-0.014 0.033,-0.043 0.045,-0.057c0.53,-0.648 1.056,-1.3 1.585,-1.95c0.418,-0.525 0.857,-1.028 1.251,-1.577c0.733,-0.879 1.592,-1.613 2.509,-2.215c-0.029,-0.158 -0.102,-0.295 -0.181,-0.425c0.33,0.059 0.661,0.113 0.991,0.172c-0.041,0.062 -0.101,0.098 -0.157,0.139c-0.238,0.162 -0.47,0.336 -0.706,0.503c0.011,-0.044 0.035,-0.131 0.047,-0.175c-0.588,0.373 -1.134,0.831 -1.652,1.324c-0.369,0.356 -0.722,0.737 -1.019,1.176c-0.859,1.059 -1.717,2.118 -2.577,3.175c-0.103,0.115 -0.188,0.251 -0.299,0.357c-0.136,0.086 -0.289,0.128 -0.433,0.195c-1.753,0.724 -3.548,1.298 -5.351,1.828c-1.107,0.32 -2.219,0.618 -3.335,0.89c-0.313,0.08 -0.628,0.153 -0.943,0.227c-0.309,0.075 -0.619,0.141 -0.928,0.223c-0.488,0.089 -0.972,0.211 -1.459,0.309c-0.033,-0.045 -0.067,-0.092 -0.1,-0.137c-0.34,-0.506 -0.719,-0.988 -0.961,-1.571c-0.156,-0.335 -0.303,-0.676 -0.452,-1.015c-0.971,-2.17 -2.009,-4.299 -3.056,-6.421c-0.516,-0.891 -1.136,-1.761 -1.984,-2.239c-0.599,-0.345 -1.324,-0.366 -1.935,-0.05c-0.859,0.435 -1.514,1.276 -1.995,2.186c-0.044,-0.029 -0.088,-0.058 -0.132,-0.087c0.495,-0.953 1.183,-1.825 2.081,-2.268l0,0Z" style="fill:#9c9c9c;fill-rule:nonzero;"/><path id="path44" d="M22.822,16.492c0.078,-0.285 0.133,-0.577 0.179,-0.87c0.113,0.018 0.227,0.038 0.34,0.061c-0.027,0.096 -0.052,0.193 -0.074,0.291c-0.14,0.182 -0.294,0.349 -0.445,0.518l0,0Z" style="fill:#d0d0d0;fill-rule:nonzero;"/><path id="path46" d="M22.719,16.865c0.148,-0.19 0.312,-0.363 0.471,-0.541c-0.103,0.356 -0.174,0.722 -0.275,1.079c-0.179,0.649 -0.41,1.288 -0.749,1.85c-0.029,0.057 -0.08,0.119 -0.057,0.192c0.072,0.366 0.15,0.73 0.229,1.092c-0.017,0.012 -0.052,0.034 -0.069,0.046c-0.338,0.004 -0.677,-0.01 -1.014,0.004c-0.1,0.075 -0.175,0.186 -0.261,0.278c-0.456,0.518 -0.934,1.016 -1.457,1.443c-0.296,0.125 -0.6,0.23 -0.908,0.312c1.107,-0.88 2.128,-1.928 2.927,-3.184c0.494,-0.783 0.906,-1.645 1.163,-2.571l0,0Z" style="fill:#636363;fill-rule:nonzero;"/><path id="path48" d="M23.19,16.325l0.033,-0.039c0.057,0.815 0.056,1.634 0.141,2.446c0.157,0.003 0.317,0.021 0.465,0.089c0.129,0.067 0.231,0.185 0.306,0.325c-0.342,0.307 -0.699,0.592 -1.062,0.863c-0.114,-0.86 -0.207,-1.734 -0.158,-2.606c0.102,-0.356 0.172,-0.723 0.275,-1.078l0,0Z" style="fill:#a9a9a9;fill-rule:nonzero;"/><path id="path58" d="M2.929,19.444c0.339,-0.4 0.766,-0.76 1.266,-0.79c0.431,-0.032 0.839,0.222 1.137,0.565c0.24,0.288 0.464,0.613 0.566,1.001c0.497,1.643 0.895,3.331 1.129,5.052c0.058,0.415 0.099,0.834 0.133,1.252c0.024,0.453 0.057,0.906 0.038,1.36c-0.005,0.126 -0.011,0.253 -0.016,0.38l0.13,0c0.926,0.024 1.853,0.025 2.78,0.021c0.044,-0.001 0.089,-0.002 0.134,-0.002c1.247,-0.015 2.495,-0.042 3.74,-0.131c0.964,-0.074 1.934,-0.148 2.881,-0.384c0.574,-0.184 1.167,-0.27 1.75,-0.406c1.225,-0.266 2.449,-0.533 3.669,-0.822c0.946,-0.223 1.893,-0.441 2.824,-0.735c0.117,-0.043 0.247,-0.068 0.343,-0.164c0.68,-1.136 1.386,-2.251 2.062,-3.39c0.029,0.031 0.085,0.094 0.114,0.125c-0.69,1.145 -1.397,2.277 -2.087,3.422c-0.106,0.066 -0.218,0.117 -0.333,0.157c-0.888,0.288 -1.794,0.496 -2.697,0.712c-1.317,0.313 -2.639,0.602 -3.96,0.889c-0.535,0.125 -1.078,0.199 -1.603,0.372c-0.959,0.25 -1.943,0.323 -2.921,0.401c-2.323,0.152 -4.651,0.146 -6.977,0.11c-0.001,-0.024 -0.001,-0.071 -0.001,-0.094c0.001,-0.141 0.011,-0.28 0.014,-0.42c0.005,-0.437 -0.005,-0.874 -0.032,-1.309c-0.032,-0.426 -0.073,-0.851 -0.129,-1.275c-0.232,-1.722 -0.628,-3.41 -1.124,-5.054c-0.092,-0.353 -0.299,-0.646 -0.514,-0.911c-0.271,-0.329 -0.65,-0.58 -1.055,-0.549c-0.444,0.04 -0.823,0.361 -1.127,0.714c-0.551,0.649 -0.938,1.452 -1.294,2.255c-0.034,-0.02 -0.101,-0.06 -0.135,-0.081c0.355,-0.809 0.748,-1.613 1.296,-2.271l-0.001,0Z" style="fill:#9c9c9c;fill-rule:nonzero;"/><path id="path60" d="M30.082,19.214c0.25,0.271 0.524,0.514 0.767,0.793c-0.316,0.02 -0.637,-0.056 -0.948,0.021c-0.496,0.202 -0.912,0.596 -1.294,1.002c-0.364,0.398 -0.695,0.836 -0.989,1.305l-0.035,-0.066c-0.023,-0.007 -0.069,-0.021 -0.092,-0.028c0.439,-0.699 0.953,-1.341 1.55,-1.864c0.249,-0.213 0.519,-0.402 0.814,-0.516c0.242,-0.06 0.25,-0.419 0.227,-0.647l0,0Z" style="fill:#9c9c9c;fill-rule:nonzero;"/><path id="path62" d="M23.102,20.199c0.368,-0.277 0.729,-0.567 1.081,-0.872c0.029,0.463 -0.297,0.835 -0.659,0.959c0.065,0.749 0.295,1.46 0.481,2.177c0.13,-0.057 0.27,-0.066 0.407,-0.049c-0.083,0.099 -0.156,0.211 -0.249,0.297c-0.126,0.082 -0.269,0.123 -0.404,0.183c-0.29,-0.873 -0.508,-1.776 -0.657,-2.695l0,0Z" style="fill:#a9a9a9;fill-rule:nonzero;"/><path id="path70" d="M24.25,22.862c0.11,-0.106 0.195,-0.242 0.298,-0.357c0.32,0.13 0.53,0.64 0.35,1.001c-0.081,0.187 -0.241,0.298 -0.391,0.402c0.278,0.598 0.569,1.192 0.925,1.734c-0.096,0.096 -0.226,0.12 -0.343,0.164c-0.515,-0.856 -0.94,-1.781 -1.273,-2.75c0.144,-0.066 0.297,-0.109 0.434,-0.194l0,0Z" style="fill:#a9a9a9;fill-rule:nonzero;"/><path id="path72" d="M18.292,22.892c0.337,-0.092 0.674,-0.184 1.004,-0.305c-0.01,0.4 -0.012,0.799 -0.021,1.199c-0.361,-0.111 -0.716,-0.254 -1.081,-0.345c-0.309,0.179 -0.596,0.405 -0.9,0.597c-0.659,0.456 -1.347,0.855 -2.054,1.2c-0.025,0.116 -0.049,0.233 -0.073,0.35c-1.101,0.267 -2.203,0.537 -3.312,0.745c2.243,-0.875 4.444,-1.951 6.437,-3.441l0,0Z" style="fill:#636363;fill-rule:nonzero;"/><path id="path84" d="M14.188,26.001c0.315,-0.074 0.629,-0.147 0.942,-0.227c-0.05,0.227 -0.095,0.456 -0.141,0.684c-0.269,-0.148 -0.532,-0.31 -0.801,-0.457Z" style="fill:#636363;fill-rule:nonzero;"/><path id="path86" d="M25.606,25.842c0.27,-0.136 0.599,-0.17 0.861,0.009c0.175,0.105 0.259,0.347 0.241,0.567c-0.011,0.239 -0.11,0.452 -0.195,0.665c0.543,0.446 1.064,0.943 1.683,1.246c0.098,-0.228 0.266,-0.42 0.481,-0.494c0.228,-0.098 0.52,-0.014 0.652,0.233c0.133,0.241 0.139,0.538 0.116,0.813c0.257,0.085 0.526,0.09 0.79,0.124c-0.027,0.125 -0.008,0.276 -0.063,0.387c-0.883,-0.043 -1.75,-0.346 -2.521,-0.841c-0.98,-0.63 -1.806,-1.551 -2.461,-2.596c0.114,-0.039 0.226,-0.09 0.332,-0.156c0.021,0.011 0.063,0.032 0.084,0.043Z" style="fill:#a9a9a9;fill-rule:nonzero;"/><path id="path88" d="M11.801,26.534c0.487,-0.099 0.97,-0.221 1.459,-0.31c-0.897,0.372 -1.801,0.724 -2.715,1.037c-0.108,0.34 -0.211,0.682 -0.32,1.022c-0.044,0.001 -0.089,0.001 -0.134,0.002c-0.225,-0.167 -0.443,-0.349 -0.666,-0.521c-0.096,-0.092 -0.217,-0.018 -0.322,0.004c-0.597,0.167 -1.193,0.336 -1.792,0.496l-0.129,0c0.005,-0.127 0.01,-0.254 0.015,-0.38c1.516,-0.433 3.021,-0.92 4.504,-1.488c0.033,0.046 0.066,0.092 0.1,0.138l0,0Z" style="fill:#636363;fill-rule:nonzero;"/><path id="path94" d="M4.429,28.61c0.875,-0.209 1.746,-0.44 2.615,-0.684c-0.003,0.139 -0.013,0.279 -0.015,0.419c-0.311,0.095 -0.629,0.162 -0.937,0.27c-0.126,0.325 -0.249,0.652 -0.385,0.972c-0.276,-0.222 -0.552,-0.445 -0.838,-0.649c-0.353,0.062 -0.709,0.118 -1.063,0.176c-0.009,-0.114 -0.017,-0.229 -0.025,-0.344c0.216,-0.053 0.433,-0.104 0.648,-0.16l0,0Z" style="fill:#636363;fill-rule:nonzero;"/></g></svg>
