<svg xmlns="http://www.w3.org/2000/svg" xml:space="preserve" style="fill-rule:evenodd;clip-rule:evenodd;stroke-linejoin:round;stroke-miterlimit:1.41421" viewBox="0 0 32 32"><path d="M.002-.038h32.022v32.155H.002z" style="fill:#282828"/><path d="M18.331 2.308c1.506-.564 3.104-.7 4.678-.665 1.24.045 2.48.182 3.698.46l-.042.171c-.937-.22-1.89-.338-2.842-.413-1.308-.092-2.627-.06-3.92.19-1.119.221-2.234.612-3.193 1.331a14.055 14.055 0 0 0-2.048 1.986c-.949 1.123-1.697 2.499-2.047 4.025-.405 1.73-.309 3.579.113 5.292.274 1.097.688 2.159 1.289 3.07.48.723 1.096 1.355 1.844 1.674a2.705 2.705 0 0 0 1.536.183c.387-.068.769-.165 1.152-.256.909-.221 1.821-.553 2.575-1.198.471-.36.895-.794 1.304-1.242.132-.14.266-.278.393-.425.152-.169.305-.335.445-.517.344-.384.671-.788 1.001-1.188.232-.277.462-.557.688-.841.166-.208.348-.4.486-.636.569-.907 1.159-1.799 1.675-2.748.096-.199.234-.373.289-.595a2.835 2.835 0 0 1 1.363-1.671c.268-.148.553-.252.841-.333a1.129 1.129 0 0 0-.147-.334c.333.093.667.184 1.001.279-.299.199-.617.358-.92.548.035-.1.063-.203.08-.309-.682.173-1.357.56-1.777 1.224-.164.252-.271.544-.359.839-.622 1.189-1.349 2.296-2.059 3.415-.395.5-.805.983-1.203 1.48-.335.394-.665.794-1.004 1.183l-.033.039c-.159.178-.322.351-.471.54-.152.152-.297.314-.449.467-.478.502-.987.971-1.552 1.338-.956.624-2.052.846-3.116 1.083a2.927 2.927 0 0 1-2.13-.331c-1.024-.594-1.759-1.685-2.27-2.845a12.486 12.486 0 0 1-.99-5.306c.056-1.56.481-3.098 1.221-4.404.732-1.31 1.729-2.391 2.807-3.314a6.718 6.718 0 0 1 2.091-1.244l.002-.002Z" style="fill:#9c9c9c;fill-rule:nonzero"/><path d="M21.01 3.944c.243-.272.519-.502.771-.762a.833.833 0 0 0 .024.459c.626.01 1.29.184 1.76.691.603.64.968 1.521 1.218 2.409.222.808.339 1.655.344 2.502.029 1.231-.253 2.48-.868 3.493-.107.181-.22.357-.34.526a9.324 9.324 0 0 1-.886 1.045 9.584 9.584 0 0 1-1.18 1.044c-.886.661-1.872 1.157-2.912 1.378-.615.124-1.254.162-1.867-.001-.326-.093-.652-.246-.893-.525-.17-.216-.368-.4-.533-.621a5.31 5.31 0 0 1-1.069-2.541c-.132-.918-.032-1.863.202-2.748.369-1.48.971-2.924 1.94-4.005.613-.692 1.364-1.194 2.144-1.588.325-.161.644-.342.969-.503l.059.148c-.668.394-1.383.681-2.021 1.143a6.211 6.211 0 0 0-1.695 1.785c-.496.777-.853 1.661-1.117 2.574-.199.699-.368 1.419-.385 2.159-.035.94.164 1.896.596 2.697.239.471.563.873.909 1.242.313.441.816.61 1.288.68.983.125 1.974-.138 2.882-.561a8.184 8.184 0 0 0 1.487-.913c.217-.167.431-.344.636-.531.181-.164.354-.34.527-.514.289-.303.567-.622.812-.973.156-.218.301-.448.434-.687.41-.749.655-1.616.707-2.502a9.66 9.66 0 0 0-.053-1.831c-.136-1.041-.421-2.073-.926-2.956-.277-.468-.631-.909-1.097-1.119a2.716 2.716 0 0 0-.986-.22c.042.052.085.103.129.153-.336-.02-.676.014-1.011-.027h.001Z" style="fill:#9c9c9c;fill-rule:nonzero"/><path d="M20.543 7.341c.31-.138.613-.293.922-.432a1.382 1.382 0 0 0-.081.394c.48.094.945.368 1.244.821.413.61.543 1.405.565 2.162 0 .64.039 1.33-.262 1.899-.071.13-.148.255-.234.371-.325.423-.754.712-1.189.955-.301.151-.608.279-.915.411-.628.193-1.248.478-1.905.5-.437.017-.898-.133-1.206-.506-.262-.309-.393-.73-.462-1.148l-.008-.08c-.025-.448-.02-.911.124-1.334.295-.909.603-1.831 1.115-2.61.398-.601.929-1.115 1.56-1.344l.025.169c-.591.248-1.098.72-1.472 1.3-.475.729-.767 1.586-1.046 2.433-.209.589-.212 1.264-.046 1.867.132.472.46.877.881 1.001.585.188 1.187-.02 1.751-.204.583-.19 1.163-.406 1.707-.715.381-.223.75-.497 1.022-.883a1.99 1.99 0 0 0 .2-.352 2.08 2.08 0 0 0 .16-.531 7.597 7.597 0 0 0-.028-1.987c-.076-.468-.22-.936-.489-1.305a1.724 1.724 0 0 0-1.057-.694l.07.22c-.233-.072-.458-.17-.689-.249a.804.804 0 0 1-.257-.128v-.001Z" style="fill:#9c9c9c;fill-rule:nonzero"/><path d="M3.67 10.088c.943-.302 1.983-.346 2.898.099.815.39 1.467 1.139 1.929 1.994.514.942.836 2.004 1.08 3.075.433 1.329.883 2.652 1.423 3.928.205.455.394.935.715 1.3.564.822 1.302 1.489 2.14 1.895.53.26 1.093.432 1.665.503 1.038.147 2.096.026 3.109-.263.308-.081.611-.186.908-.311a42.399 42.399 0 0 0 2.732-1.725l.068-.046c.249-.168.493-.347.735-.528.364-.272.721-.557 1.062-.864.307-.274.604-.563.887-.869.075-.085.153-.165.219-.26.84-1.296 1.701-2.574 2.576-3.839.193-.283.402-.551.579-.847.34-.515.839-.841 1.337-1.11a.97.97 0 0 0-.179-.397c.338.072.676.141 1.014.21-.285.218-.587.406-.885.6l.054-.214c-.527.269-1.034.652-1.349 1.222a142.874 142.874 0 0 0-2.942 4.353c-.13.228-.318.395-.48.591-.255.255-.512.509-.782.742-.352.305-.713.596-1.081.872-1.069.8-2.198 1.485-3.323 2.174-.152.095-.32.151-.484.213-.33.122-.667.213-1.003.305-1.027.24-2.093.314-3.129.11a5.422 5.422 0 0 1-1.518-.535 5.785 5.785 0 0 1-1.941-1.719c-.136-.202-.307-.369-.418-.593-.434-.814-.757-1.699-1.083-2.577a69.51 69.51 0 0 1-.773-2.268c-.268-1.177-.63-2.348-1.245-3.347-.484-.788-1.159-1.452-1.969-1.734-.927-.341-1.934-.2-2.843.151-.724.277-1.406.685-2.045 1.165a6.086 6.086 0 0 0-.083-.135c.741-.581 1.56-1.041 2.424-1.32l.001-.001Z" style="fill:#9c9c9c;fill-rule:nonzero"/><path d="M21.019 10.346c.3.065.598.168.864.347.069.041.137.104.221.084.286-.029.569-.071.854-.101-.041.356-.088.71-.133 1.065a.933.933 0 0 0 .008.274 1.955 1.955 0 0 1-.2.352c-.144-.389-.333-.764-.604-1.054a1.417 1.417 0 0 0-.988-.484c-.01-.161-.017-.322-.022-.483Zm1.678 2.211c.086-.117.163-.242.234-.371.093.222.159.457.232.689.058.045.133.024.199.039.167.012.315.113.45.22a8.297 8.297 0 0 1-.812.972 7.98 7.98 0 0 0-.303-1.549Zm.335 1.751c.317-.323.613-.672.886-1.046.115.198.191.457.095.686-.111.305-.393.435-.636.559-.031.392-.031.785-.036 1.176a8.128 8.128 0 0 0-.341-.061c.067-.435.026-.877.032-1.314Z" style="fill:#d0d0d0;fill-rule:nonzero"/><path d="M3.267 14.931a2.16 2.16 0 0 1 2.059.068c.867.493 1.505 1.38 2.033 2.292 1.051 2.132 2.095 4.271 3.07 6.452.161.355.314.714.476 1.067.25.559.621 1.026.95 1.523 1.109-.209 2.211-.479 3.311-.746a76.12 76.12 0 0 0 6.015-1.734 41.843 41.843 0 0 0 2.578-.959c.135-.06.278-.101.405-.183.092-.087.165-.198.249-.297l.045-.057c.53-.648 1.056-1.3 1.585-1.95.418-.525.857-1.028 1.251-1.577a11.395 11.395 0 0 1 2.509-2.215 1.259 1.259 0 0 0-.181-.425c.33.059.661.113.991.172-.041.062-.101.098-.157.139-.238.162-.47.336-.706.503l.047-.175c-.588.373-1.134.831-1.652 1.324a7.44 7.44 0 0 0-1.019 1.176c-.859 1.059-1.717 2.118-2.577 3.175-.103.115-.188.251-.299.357-.136.086-.289.128-.433.195-1.753.724-3.548 1.298-5.351 1.828-1.107.32-2.219.618-3.335.89-.313.08-.628.153-.943.227-.309.075-.619.141-.928.223-.488.089-.972.211-1.459.309l-.1-.137c-.34-.506-.719-.988-.961-1.571-.156-.335-.303-.676-.452-1.015-.971-2.17-2.009-4.299-3.056-6.421-.516-.891-1.136-1.761-1.984-2.239a2.013 2.013 0 0 0-1.935-.05c-.859.435-1.514 1.276-1.995 2.186l-.132-.087c.495-.953 1.183-1.825 2.081-2.268Z" style="fill:#9c9c9c;fill-rule:nonzero"/><path d="M22.822 16.492c.078-.285.133-.577.179-.87.113.018.227.038.34.061a5.63 5.63 0 0 0-.074.291c-.14.182-.294.349-.445.518Z" style="fill:#d0d0d0;fill-rule:nonzero"/><path d="M22.719 16.865c.148-.19.312-.363.471-.541-.103.356-.174.722-.275 1.079-.179.649-.41 1.288-.749 1.85-.029.057-.08.119-.057.192.072.366.15.73.229 1.092l-.069.046c-.338.004-.677-.01-1.014.004-.1.075-.175.186-.261.278-.456.518-.934 1.016-1.457 1.443-.296.125-.6.23-.908.312 1.107-.88 2.128-1.928 2.927-3.184a9.707 9.707 0 0 0 1.163-2.571Z" style="fill:#636363;fill-rule:nonzero"/><path d="m23.19 16.325.033-.039c.057.815.056 1.634.141 2.446.157.003.317.021.465.089a.76.76 0 0 1 .306.325c-.342.307-.699.592-1.062.863-.114-.86-.207-1.734-.158-2.606.102-.356.172-.723.275-1.078Z" style="fill:#a9a9a9;fill-rule:nonzero"/><path d="M2.929 19.444c.339-.4.766-.76 1.266-.79.431-.032.839.222 1.137.565.24.288.464.613.566 1.001.497 1.643.895 3.331 1.129 5.052.058.415.099.834.133 1.252.024.453.057.906.038 1.36l-.016.38h.13a91.993 91.993 0 0 0 2.914.019 63.077 63.077 0 0 0 3.74-.131c.964-.074 1.934-.148 2.881-.384.574-.184 1.167-.27 1.75-.406a200.22 200.22 0 0 0 3.669-.822c.946-.223 1.893-.441 2.824-.735.117-.043.247-.068.343-.164.68-1.136 1.386-2.251 2.062-3.39l.114.125c-.69 1.145-1.397 2.277-2.087 3.422a1.657 1.657 0 0 1-.333.157c-.888.288-1.794.496-2.697.712-1.317.313-2.639.602-3.96.889-.535.125-1.078.199-1.603.372-.959.25-1.943.323-2.921.401-2.323.152-4.651.146-6.977.11l-.001-.094c.001-.141.011-.28.014-.42.005-.437-.005-.874-.032-1.309a22.739 22.739 0 0 0-.129-1.275c-.232-1.722-.628-3.41-1.124-5.054-.092-.353-.299-.646-.514-.911-.271-.329-.65-.58-1.055-.549-.444.04-.823.361-1.127.714-.551.649-.938 1.452-1.294 2.255a9.635 9.635 0 0 1-.135-.081c.355-.809.748-1.613 1.296-2.271h-.001Zm27.153-.23c.25.271.524.514.767.793-.316.02-.637-.056-.948.021-.496.202-.912.596-1.294 1.002a9.075 9.075 0 0 0-.989 1.305l-.035-.066-.092-.028c.439-.699.953-1.341 1.55-1.864a2.88 2.88 0 0 1 .814-.516c.242-.06.25-.419.227-.647Z" style="fill:#9c9c9c;fill-rule:nonzero"/><path d="M23.102 20.199a20.2 20.2 0 0 0 1.081-.872c.029.463-.297.835-.659.959.065.749.295 1.46.481 2.177a.768.768 0 0 1 .407-.049c-.083.099-.156.211-.249.297-.126.082-.269.123-.404.183a17.372 17.372 0 0 1-.657-2.695Zm1.148 2.663c.11-.106.195-.242.298-.357.32.13.53.64.35 1.001-.081.187-.241.298-.391.402.278.598.569 1.192.925 1.734-.096.096-.226.12-.343.164a14.435 14.435 0 0 1-1.273-2.75c.144-.066.297-.109.434-.194Z" style="fill:#a9a9a9;fill-rule:nonzero"/><path d="M18.292 22.892c.337-.092.674-.184 1.004-.305-.01.4-.012.799-.021 1.199-.361-.111-.716-.254-1.081-.345-.309.179-.596.405-.9.597-.659.456-1.347.855-2.054 1.2l-.073.35c-1.101.267-2.203.537-3.312.745 2.243-.875 4.444-1.951 6.437-3.441Zm-4.104 3.109c.315-.074.629-.147.942-.227-.05.227-.095.456-.141.684-.269-.148-.532-.31-.801-.457Z" style="fill:#636363;fill-rule:nonzero"/><path d="M25.606 25.842c.27-.136.599-.17.861.009.175.105.259.347.241.567-.011.239-.11.452-.195.665.543.446 1.064.943 1.683 1.246.098-.228.266-.42.481-.494a.514.514 0 0 1 .652.233c.133.241.139.538.116.813.257.085.526.09.79.124-.027.125-.008.276-.063.387-.883-.043-1.75-.346-2.521-.841-.98-.63-1.806-1.551-2.461-2.596.114-.039.226-.09.332-.156l.084.043Z" style="fill:#a9a9a9;fill-rule:nonzero"/><path d="M11.801 26.534c.487-.099.97-.221 1.459-.31a46.03 46.03 0 0 1-2.715 1.037c-.108.34-.211.682-.32 1.022l-.134.002c-.225-.167-.443-.349-.666-.521-.096-.092-.217-.018-.322.004-.597.167-1.193.336-1.792.496h-.129l.015-.38a54.163 54.163 0 0 0 4.504-1.488l.1.138ZM4.429 28.61c.875-.209 1.746-.44 2.615-.684-.003.139-.013.279-.015.419-.311.095-.629.162-.937.27-.126.325-.249.652-.385.972-.276-.222-.552-.445-.838-.649-.353.062-.709.118-1.063.176a37.065 37.065 0 0 1-.025-.344c.216-.053.433-.104.648-.16Z" style="fill:#636363;fill-rule:nonzero"/></svg>
