<svg xmlns="http://www.w3.org/2000/svg" xml:space="preserve" style="fill-rule:evenodd;clip-rule:evenodd;stroke-linejoin:round;stroke-miterlimit:1.41421" viewBox="0 0 32 32"><path d="M.002-.038h32.022v32.155H.002z" style="fill:#282828"/><path d="M20.405 4.04c.32.074.638.189.921.39.074.045.147.116.236.094.305-.033.607-.08.911-.114-.044.4-.094.796-.142 1.193a.995 1.045 0 0 0 .009.307 2.085 2.19 0 0 1-.214.394c-.153-.436-.355-.855-.644-1.18a1.511 1.587 0 0 0-1.054-.542c-.01-.18-.018-.36-.023-.541Zm1.79 2.477c.091-.131.174-.271.25-.416.099.249.169.512.247.772.062.05.142.027.212.044.178.013.336.126.48.246a8.85 9.291 0 0 1-.866 1.088 8.512 8.936 0 0 0-.323-1.734m.357 1.96c.338-.361.654-.752.945-1.17.123.221.204.511.101.767-.118.342-.419.488-.678.626-.033.44-.033.88-.038 1.317a8.67 9.102 0 0 0-.364-.068c.071-.487.028-.982.034-1.471z" style="fill:#fff;fill-rule:nonzero;stroke-width:1.09289"/><path d="M22.328 10.923c.083-.319.142-.646.191-.974.12.02.242.043.363.068a6.005 6.304 0 0 0-.08.326c-.149.204-.313.391-.474.58m-.11.417c.158-.212.333-.406.503-.605-.11.399-.186.809-.294 1.208-.19.727-.437 1.443-.799 2.072-.03.064-.085.133-.06.215.076.41.16.817.244 1.223l-.074.051c-.36.005-.722-.01-1.081.005-.107.084-.187.208-.279.311-.486.58-.996 1.138-1.554 1.616-.316.14-.64.258-.968.35 1.18-.986 2.27-2.16 3.122-3.566a10.354 10.87 0 0 0 1.24-2.88" style="fill:#fff;fill-rule:nonzero;stroke-width:1.09289"/><path d="m22.72 10.736.036-.043c.06.912.06 1.83.15 2.739.168.003.338.023.496.1a.81.851 0 0 1 .327.363c-.365.344-.746.663-1.133.967-.122-.963-.221-1.942-.169-2.919.109-.398.184-.81.294-1.207zm-.093 4.338a21.546 22.62 0 0 0 1.153-.976 1.09 1.09 0 0 1-.703 1.074c.07.838.314 1.635.513 2.438a.82.86 0 0 1 .434-.055c-.089.11-.166.236-.266.332-.134.092-.287.138-.43.205a18.53 19.453 0 0 1-.701-3.018m1.224 2.982c.118-.118.208-.27.318-.4.341.146.565.717.373 1.121-.086.21-.257.334-.417.45.297.67.607 1.335.987 1.942-.102.108-.241.135-.366.184a15.397 16.164 0 0 1-1.358-3.08c.154-.073.317-.121.463-.217" style="fill:#fff;fill-rule:nonzero;stroke-width:1.09289"/><path d="M17.496 18.09c.36-.103.72-.206 1.071-.342-.01.448-.013.895-.022 1.343-.385-.124-.764-.284-1.153-.386-.33.2-.636.453-.96.668-.703.51-1.437.958-2.191 1.344l-.078.392c-1.174.299-2.35.601-3.533.834 2.393-.98 4.74-2.185 6.866-3.853m-4.376 3.48c.336-.082.67-.164 1.005-.254-.054.254-.102.51-.15.766-.288-.166-.568-.347-.855-.512" style="fill:#999;fill-rule:nonzero;stroke-width:1.09289"/><path d="M25.298 21.393c.288-.152.638-.19.918.01.187.118.276.389.257.635-.012.268-.117.507-.208.745.58.5 1.135 1.056 1.795 1.395.105-.255.284-.47.513-.553a.548.576 0 0 1 .696.261c.141.27.148.602.123.91.274.096.561.101.843.14-.029.14-.009.308-.067.433-.942-.049-1.867-.388-2.69-.942-1.044-.706-1.926-1.737-2.624-2.907.121-.044.24-.1.354-.175z" style="fill:#fff;fill-rule:nonzero;stroke-width:1.09289"/><path d="M10.573 22.168c.52-.11 1.034-.247 1.556-.347a49.097 51.544 0 0 1-2.896 1.161c-.115.381-.225.764-.341 1.145l-.143.002c-.24-.187-.473-.39-.71-.583-.103-.103-.232-.02-.344.004-.637.187-1.273.376-1.911.556h-.138l.016-.426a57.772 60.652 0 0 0 4.804-1.666zm-7.864 2.325a70.633 70.633 0 0 0 2.79-.766c-.003.156-.014.312-.016.47-.332.106-.671.18-1 .302-.134.363-.265.73-.41 1.088-.295-.249-.59-.498-.894-.727-.377.07-.756.132-1.134.197a39.535 41.505 0 0 1-.027-.385c.23-.06.462-.116.691-.179" style="fill:#999;fill-rule:nonzero;stroke-width:1.09289"/></svg>